<svg viewBox="0 0 20 20" xmlns="http://www.w3.org/2000/svg">
  <path d="M16.4706 3.54294C16.47 2.98374 16.2475 2.44762 15.852 2.05226C15.4566 1.6569 14.9204 1.43459 14.3612 1.43412H13.6029V0.588236C13.6029 0.432226 13.541 0.282606 13.4307 0.17229C13.3203 0.0619746 13.1707 0 13.0147 0C12.8587 0 12.7091 0.0619746 12.5988 0.17229C12.4884 0.282606 12.4265 0.432226 12.4265 0.588236V1.43412H8.82353V0.588236C8.82353 0.432226 8.76156 0.282606 8.65124 0.17229C8.54093 0.0619746 8.39131 0 8.2353 0C8.07929 0 7.92967 0.0619746 7.81935 0.17229C7.70904 0.282606 7.64706 0.432226 7.64706 0.588236V1.43412H4.04412V0.588236C4.04412 0.432226 3.98214 0.282606 3.87183 0.17229C3.76151 0.0619746 3.61189 0 3.45588 0C3.29987 0 3.15025 0.0619746 3.03994 0.17229C2.92962 0.282606 2.86765 0.432226 2.86765 0.588236V1.43412H2.10941C1.55021 1.43459 1.01403 1.6569 0.618556 2.05226C0.223083 2.44762 0.000623049 2.98374 0 3.54294V4.70588H16.4706V3.54294Z" fill="currentColor"/>
  <path d="M15.8824 10.5882C16.0789 10.5888 16.2753 10.6004 16.4706 10.6229V5.88235H0V13.7288C0.000778129 14.2997 0.227917 14.847 0.631614 15.2507C1.03531 15.6544 1.58262 15.8816 2.15353 15.8824H10.5882C10.59 14.4788 11.1483 13.1332 12.1407 12.1407C13.1332 11.1483 14.4788 10.59 15.8824 10.5882ZM5.29412 12.6106C5.29412 12.654 5.28557 12.697 5.26895 12.7371C5.25234 12.7772 5.22799 12.8137 5.19729 12.8444C5.16659 12.8751 5.13015 12.8994 5.09004 12.916C5.04993 12.9326 5.00694 12.9412 4.96353 12.9412H3.86C3.81659 12.9412 3.7736 12.9326 3.73349 12.916C3.69338 12.8994 3.65694 12.8751 3.62624 12.8444C3.59554 12.8137 3.57119 12.7772 3.55458 12.7371C3.53796 12.697 3.52941 12.654 3.52941 12.6106V11.5071C3.52941 11.4636 3.53796 11.4207 3.55458 11.3806C3.57119 11.3404 3.59554 11.304 3.62624 11.2733C3.65694 11.2426 3.69338 11.2183 3.73349 11.2016C3.7736 11.185 3.81659 11.1765 3.86 11.1765H4.96353C5.00694 11.1765 5.04993 11.185 5.09004 11.2016C5.13015 11.2183 5.16659 11.2426 5.19729 11.2733C5.22799 11.304 5.25234 11.3404 5.26895 11.3806C5.28557 11.4207 5.29412 11.4636 5.29412 11.5071V12.6106ZM5.29412 9.08118C5.29412 9.16886 5.25929 9.25294 5.19729 9.31494C5.13529 9.37694 5.05121 9.41177 4.96353 9.41177H3.86C3.77232 9.41177 3.68824 9.37694 3.62624 9.31494C3.56424 9.25294 3.52941 9.16886 3.52941 9.08118V7.97765C3.52941 7.88997 3.56424 7.80589 3.62624 7.74389C3.68824 7.68189 3.77232 7.64706 3.86 7.64706H4.96353C5.05121 7.64706 5.13529 7.68189 5.19729 7.74389C5.25929 7.80589 5.29412 7.88997 5.29412 7.97765V9.08118ZM8.82353 12.6106C8.82353 12.654 8.81498 12.697 8.79837 12.7371C8.78175 12.7772 8.7574 12.8137 8.7267 12.8444C8.69601 12.8751 8.65956 12.8994 8.61945 12.916C8.57935 12.9326 8.53636 12.9412 8.49294 12.9412H7.38941C7.346 12.9412 7.30301 12.9326 7.2629 12.916C7.22279 12.8994 7.18635 12.8751 7.15565 12.8444C7.12495 12.8137 7.1006 12.7772 7.08399 12.7371C7.06738 12.697 7.05883 12.654 7.05883 12.6106V11.5071C7.05883 11.4636 7.06738 11.4207 7.08399 11.3806C7.1006 11.3404 7.12495 11.304 7.15565 11.2733C7.18635 11.2426 7.22279 11.2183 7.2629 11.2016C7.30301 11.185 7.346 11.1765 7.38941 11.1765H8.49294C8.53636 11.1765 8.57935 11.185 8.61945 11.2016C8.65956 11.2183 8.69601 11.2426 8.7267 11.2733C8.7574 11.304 8.78175 11.3404 8.79837 11.3806C8.81498 11.4207 8.82353 11.4636 8.82353 11.5071V12.6106ZM8.82353 9.08118C8.82353 9.16886 8.7887 9.25294 8.7267 9.31494C8.66471 9.37694 8.58062 9.41177 8.49294 9.41177H7.38941C7.30174 9.41177 7.21765 9.37694 7.15565 9.31494C7.09366 9.25294 7.05883 9.16886 7.05883 9.08118V7.97765C7.05883 7.88997 7.09366 7.80589 7.15565 7.74389C7.21765 7.68189 7.30174 7.64706 7.38941 7.64706H8.49294C8.58062 7.64706 8.66471 7.68189 8.7267 7.74389C8.7887 7.80589 8.82353 7.88997 8.82353 7.97765V9.08118ZM10.9188 9.41177C10.8311 9.41177 10.7471 9.37694 10.6851 9.31494C10.6231 9.25294 10.5882 9.16886 10.5882 9.08118V7.97765C10.5882 7.88997 10.6231 7.80589 10.6851 7.74389C10.7471 7.68189 10.8311 7.64706 10.9188 7.64706H12.0224C12.11 7.64706 12.1941 7.68189 12.2561 7.74389C12.3181 7.80589 12.3529 7.88997 12.3529 7.97765V9.08118C12.3529 9.16886 12.3181 9.25294 12.2561 9.31494C12.1941 9.37694 12.11 9.41177 12.0224 9.41177H10.9188Z" fill="currentColor"/>
  <path d="M15.8823 11.7647C15.0679 11.7647 14.2718 12.0062 13.5947 12.4586C12.9175 12.9111 12.3897 13.5542 12.0781 14.3066C11.7664 15.059 11.6849 15.8869 11.8438 16.6856C12.0027 17.4844 12.3948 18.2181 12.9707 18.7939C13.5465 19.3698 14.2802 19.762 15.079 19.9209C15.8777 20.0797 16.7057 19.9982 17.4581 19.6865C18.2105 19.3749 18.8535 18.8471 19.306 18.17C19.7585 17.4928 19.9999 16.6967 19.9999 15.8823C19.9987 14.7906 19.5645 13.744 18.7925 12.9721C18.0206 12.2001 16.974 11.7659 15.8823 11.7647ZM17.4747 17.4747C17.3643 17.585 17.2147 17.6469 17.0588 17.6469C16.9028 17.6469 16.7532 17.585 16.6429 17.4747L15.4664 16.2982C15.3561 16.1879 15.2941 16.0383 15.2941 15.8823V13.5294C15.2941 13.3734 15.356 13.2238 15.4664 13.1134C15.5767 13.0031 15.7263 12.9411 15.8823 12.9411C16.0383 12.9411 16.1879 13.0031 16.2982 13.1134C16.4086 13.2238 16.4705 13.3734 16.4705 13.5294V15.6388L17.4747 16.6429C17.5849 16.7532 17.6469 16.9028 17.6469 17.0588C17.6469 17.2148 17.5849 17.3644 17.4747 17.4747Z" fill="currentColor"/>
</svg>
