<svg viewBox="0 0 23 16" xmlns="http://www.w3.org/2000/svg">
  <path
    d="M22.1035 1.37349C21.2733 0.397935 19.7405 0 16.8131 0H6.1867C3.19233 0 1.63352 0.423604 0.80641 1.46223C0 2.47489 0 3.96696 0 6.03203V9.96804C0 13.9687 0.956801 16 6.1867 16H16.8131C19.3518 16 20.7585 15.6489 21.6685 14.7879C22.6018 13.9051 23 12.4636 23 9.96804V6.03203C23 3.85424 22.9376 2.35336 22.1035 1.37349ZM14.7661 8.54344L9.94067 11.0363C9.8328 11.092 9.71483 11.1197 9.59701 11.1197C9.46361 11.1197 9.33051 11.0842 9.21261 11.0136C8.99063 10.8807 8.85507 10.6428 8.85507 10.3863V5.41657C8.85507 5.16047 8.99026 4.92286 9.2118 4.78982C9.43341 4.65678 9.70904 4.64769 9.93897 4.76577L14.7644 7.24256C15.0099 7.36855 15.164 7.61908 15.1644 7.89241C15.1647 8.16597 15.0112 8.41686 14.7661 8.54344Z"
    fill="currentColor"
  />
</svg>